<?xml version="1.0" encoding="utf-8"?>
<svg viewBox="0 0 1024 1024" xmlns="http://www.w3.org/2000/svg">
  <defs>
    <pattern id="pattern-1" x="0" y="0" width="20" height="20" patternUnits="userSpaceOnUse" viewBox="0 0 100 100">
      <path d="M 0 0 L 50 0 L 50 100 L 0 100 Z" style="fill: black;"/>
    </pattern>
    <linearGradient id="gradient-0" gradientUnits="userSpaceOnUse" x1="512" y1="230.075" x2="512" y2="793.925" gradientTransform="matrix(0, -1.014551, 1.014551, 0, -11.689932, 1030.195615)">
      <stop offset="0" style="stop-color: rgb(33, 148, 243);"/>
      <stop offset="1" style="stop-color: rgb(5, 68, 117);"/>
    </linearGradient>
  </defs>
  <path d="M 419.742 268.209 C 531.296 203.805 659.426 225.536 745.011 299.272 L 679.21 346.048 C 673.855 342.219 668.286 338.628 662.515 335.296 C 526.487 256.761 356.454 354.929 356.454 512 C 356.454 584.898 395.344 652.257 458.474 688.704 C 533.063 731.768 617.876 721.702 679.274 677.927 L 744.981 724.637 C 731.568 736.271 716.951 746.724 701.247 755.791 C 513.576 864.142 278.989 728.704 278.989 512 C 278.989 411.428 332.643 318.496 419.742 268.209 Z" style="stroke-linecap: square; stroke-width: 0; pointer-events: none; fill: url(#gradient-0);">
    <title>C</title>
  </path>
</svg>
