<?xml version="1.0" encoding="utf-8"?>
<svg viewBox="0 0 1024 1024" xmlns="http://www.w3.org/2000/svg" xmlns:xlink="http://www.w3.org/1999/xlink">
	<defs>
		<path id="c-path" d="M 0.25 -0.09375 C 0.25 -0.375 -0.25 -0.375 -0.25 0 C -0.25 0.375 0.25 0.375 0.25 0.09375"/>
		<path id="chock" d="M 0 0 L -0.125 -0.09375 L -0.15625 0 z" />
	</defs>

	<use xlink:href="#c-path" transform="translate(512 512) scale(1024 1024)" style="stroke: rgb(0, 0, 0); fill: none; stroke-width: 0.0625; stroke-linecap: square; stroke-linejoin: miter;"/>

	<g id="chocks">
		<use xlink:href="#chock" transform="translate(512 848) translate(-88 0) scale(1024 1024)" style="stroke: none; fill: rgb(191, 191, 191); stroke-width: 0.0;"/>
		<use xlink:href="#chock" transform="translate(512 848) translate(132 0) scale(-1024 1024)" style="stroke: none; fill: rgb(191, 191, 191); stroke-width: 0.0;"/>
	</g>

  <!-- <path d="M 438.9904 534 L 551 640 L 409 640 L 438.9904 534 Z" style="fill: rgb(216, 216, 216);" transform="matrix(0.7030668258666992, 0, 0, 0.7030668258666992, -183.7922255706787, -2.400972843170166)" bx:shape="triangle 409 534 142 106 0.2112 0"/> -->
  <!-- <path d="M 846.5065 560 L 868 656 L 763 656 L 846.5065 560 Z" style="fill: rgb(216, 216, 216);" transform="matrix(0.7030668258666992, 0, 0, 0.7030668258666992, -213.32102226257325, -10.837774238586425)" bx:shape="triangle 763 560 105 96 0.7953 0"/> -->
</svg>
